<svg width="300" height="300" viewBox="0 0 300 300" fill="none" xmlns="http://www.w3.org/2000/svg">
<g clip-path="url(#clip0_529_159)">
<path d="M123.847 47C138.057 47 149.576 58.5192 149.576 72.7285V112.381L178.025 63.1064C185.13 50.8009 200.865 46.5848 213.171 53.6895C225.476 60.7942 229.692 76.5295 222.588 88.835L206.838 116.113L228.366 103.685C240.671 96.5802 256.406 100.796 263.51 113.102C270.615 125.407 266.399 141.142 254.094 148.247L215.559 170.495H238.081C252.29 170.495 263.809 182.014 263.809 196.224C263.809 210.433 252.29 221.951 238.081 221.951H204.786C195.336 238.673 177.396 249.962 156.819 249.962C146.554 249.962 136.944 247.152 128.718 242.26C128.331 242.058 127.946 241.849 127.565 241.629L52.4421 198.256C37.6755 189.73 32.6159 170.849 41.1414 156.082C49.6669 141.315 68.5494 136.256 83.3162 144.781L98.1199 153.328V72.7285C98.1199 58.5193 109.638 47.0001 123.847 47ZM131.331 171.559C128.146 171.559 125.564 174.14 125.564 177.325C125.564 193.25 138.474 206.16 154.399 206.16H160.166C176.091 206.16 189.001 193.25 189.001 177.325C189.001 174.141 186.419 171.559 183.234 171.559H131.331ZM137.551 140C134.486 140 132.001 142.485 132.001 145.55V152.2C132.001 155.265 134.486 157.75 137.551 157.75C140.615 157.75 143.1 155.265 143.1 152.2V145.55C143.1 142.485 140.615 140 137.551 140ZM175.551 140C172.486 140 170.001 142.485 170.001 145.55V152.2C170.001 155.265 172.486 157.75 175.551 157.75C178.615 157.75 181.1 155.265 181.1 152.2V145.55C181.1 142.485 178.615 140 175.551 140Z" fill="#FC5C2A"/>
</g>
<defs>
<clipPath id="clip0_529_159">
<rect width="300" height="300" rx="150" fill="white"/>
</clipPath>
</defs>
</svg>
